<svg width="18" height="17" viewBox="0 0 18 17" fill="none" xmlns="http://www.w3.org/2000/svg">
<path d="M1.84644 7.3904C1.6115 7.17313 1.73912 6.78036 2.05689 6.74269L6.55957 6.20862C6.68908 6.19326 6.80158 6.11193 6.8562 5.9935L8.75537 1.87616C8.8894 1.58559 9.30249 1.58553 9.43652 1.87611L11.3357 5.99342C11.3903 6.11184 11.5021 6.19339 11.6316 6.20875L16.1345 6.74269C16.4523 6.78036 16.5796 7.17325 16.3446 7.39051L13.016 10.4692C12.9203 10.5578 12.8777 10.6896 12.9031 10.8175L13.7865 15.2648C13.8488 15.5786 13.5148 15.8218 13.2356 15.6655L9.27907 13.4503C9.16527 13.3866 9.02701 13.3869 8.91321 13.4506L4.95629 15.665C4.67706 15.8213 4.34242 15.5786 4.40479 15.2648L5.28832 10.8178C5.31374 10.6899 5.27122 10.5578 5.17547 10.4692L1.84644 7.3904Z" stroke="#FFCC00" stroke-width="2" stroke-linecap="round" stroke-linejoin="round"/>
</svg>
